<svg xmlns="http://www.w3.org/2000/svg" viewBox="0 0 40 40" role="img" aria-label="GitLab">
  <g transform="translate(8 8) scale(1)">
    <path fill="#FC6D26" d="m22.65 9.39-2.78-8.52a.8.8 0 0 0-.76-.54H4.89a.8.8 0 0 0-.76.54L1.35 9.39a.8.8 0 0 0 .29.92l9.99 7.26 9.99-7.26a.8.8 0 0 0 .03-1.92z"/>
    <path fill="#E24329" d="M12 18.17 6.21 22.5l5.79-4.33z"/>
    <path fill="#FC6D26" d="M12 18.17 17.79 22.5 12 18.17z"/>
    <path fill="#FCA326" d="M12 9.58 6.45 1.33h11.1L12 9.58z"/>
  </g>
</svg>
